<svg xmlns="http://www.w3.org/2000/svg" width="100%" height="100%" viewBox="0 0 16 13" fill="none">
<path
    d="M7.145 1.0924L4.215 3.5524C3.675 4.0024 2.995 4.2524 2.295 4.2524H1.44501C0.925007 4.2524 0.505005 4.6724 0.505005 5.1924V7.8524C0.505005 8.3724 0.925007 8.7924 1.44501 8.7924H2.295C2.995 8.7924 3.685 9.0424 4.215 9.4924L7.145 11.9524C7.755 12.4624 8.69501 12.0324 8.69501 11.2324V1.7924C8.69501 0.992404 7.765 0.562404 7.145 1.0724V1.0924Z"
    fill="#B8BFBC"></path>
<path
    d="M11.365 3.16244C11.165 2.91244 10.795 2.88244 10.555 3.08244C10.305 3.28244 10.275 3.65244 10.475 3.89244C11.075 4.62244 11.415 5.54244 11.415 6.49244C11.415 7.44244 11.085 8.35244 10.495 9.08244C10.295 9.33244 10.325 9.69244 10.575 9.89244C10.685 9.98244 10.815 10.0224 10.935 10.0224C11.105 10.0224 11.265 9.95244 11.385 9.81244C12.145 8.88244 12.565 7.70244 12.565 6.49244C12.565 5.28244 12.135 4.09244 11.365 3.15244V3.16244Z"
    fill="#B8BFBC"></path>
<path
    d="M12.695 0.352412C12.455 0.142412 12.095 0.162412 11.885 0.402412C11.675 0.642412 11.705 1.00241 11.935 1.21241C13.465 2.54241 14.335 4.47241 14.335 6.50241C14.335 8.53241 13.465 10.4524 11.945 11.7824C11.705 11.9924 11.685 12.3524 11.895 12.5924C12.005 12.7224 12.165 12.7924 12.325 12.7924C12.455 12.7924 12.595 12.7424 12.705 12.6524C14.475 11.1024 15.495 8.86241 15.495 6.50241C15.495 4.14241 14.475 1.90241 12.705 0.352412H12.695Z"
    fill="#B8BFBC"></path>
</svg>